# xmcd
#
# Track frame offsets: 
#        150
#        16985
#        39082
#        63640
#        79945
#        88760
#        102770
#
# Disc length: 2084 seconds
#
# Revision: 0
# Processed by: cddbd v1.5.2PL0 Copyright (c) Steve Scherf et al.
# Submitted via: ExactAudioCopy v0.95b4
#
DISCID=4c082207
DTITLE=Roy Brown - Live!
DYEAR=1988
DGENRE=Blues
TTITLE0=Travelin' Blues
TTITLE1=Love For Sale
TTITLE2=Boogie Woogie Blues
TTITLE3=Good Rockin' Tonight
TTITLE4=Let The Four Winds Blow
TTITLE5=Medley: Boogies At Midnight - Love Don't Love Nobody
TTITLE6=Medley: Losing Hand - Tin Pan Alley
EXTD=
EXTT0=
EXTT1=
EXTT2=
EXTT3=
EXTT4=
EXTT5=
EXTT6=
PLAYORDER=
